<?xml version="1.0" encoding="UTF-8" standalone="no"?>
<!-- Created with Inkscape (http://www.inkscape.org/) -->

<svg
   version="1.1"
   id="svg2"
   width="290.84024"
   height="290.84024"
   viewBox="0 0 290.84024 290.84024"
   sodipodi:docname="favicon.svg"
   inkscape:version="1.1 (c68e22c387, 2021-05-23)"
   xmlns:inkscape="http://www.inkscape.org/namespaces/inkscape"
   xmlns:sodipodi="http://sodipodi.sourceforge.net/DTD/sodipodi-0.dtd"
   xmlns:xlink="http://www.w3.org/1999/xlink"
   xmlns="http://www.w3.org/2000/svg"
   xmlns:svg="http://www.w3.org/2000/svg">
  <defs
     id="defs6">
    <linearGradient
       inkscape:collect="always"
       id="linearGradient17412">
      <stop
         style="stop-color:#6025bf;stop-opacity:1"
         offset="0"
         id="stop17408" />
      <stop
         style="stop-color:#a62cc1;stop-opacity:1"
         offset="1"
         id="stop17410" />
    </linearGradient>
    <inkscape:path-effect
       effect="powerstroke"
       id="path-effect17280"
       is_visible="true"
       lpeversion="1"
       offset_points="3,18.8679"
       not_jump="false"
       sort_points="true"
       interpolator_type="CubicBezierJohan"
       interpolator_beta="0.2"
       start_linecap_type="zerowidth"
       linejoin_type="extrp_arc"
       miter_limit="4"
       scale_width="1"
       end_linecap_type="zerowidth" />
    <inkscape:path-effect
       effect="powerstroke"
       id="path-effect17276"
       is_visible="true"
       lpeversion="1"
       offset_points="4,18.8679"
       not_jump="false"
       sort_points="true"
       interpolator_type="CubicBezierJohan"
       interpolator_beta="0.2"
       start_linecap_type="zerowidth"
       linejoin_type="extrp_arc"
       miter_limit="4"
       scale_width="1"
       end_linecap_type="zerowidth" />
    <inkscape:path-effect
       effect="fill_between_strokes"
       id="path-effect12197"
       is_visible="true"
       lpeversion="1"
       linkedpath=""
       secondpath=""
       reversesecond="false"
       join="true"
       close="true" />
    <inkscape:path-effect
       effect="fill_between_strokes"
       id="path-effect10894"
       is_visible="true"
       lpeversion="1"
       linkedpath=""
       secondpath=""
       reversesecond="false"
       join="true"
       close="true" />
    <inkscape:path-effect
       effect="fill_between_strokes"
       id="path-effect10863"
       is_visible="true"
       lpeversion="1"
       linkedpath=""
       secondpath=""
       reversesecond="false"
       join="true"
       close="true" />
    <inkscape:path-effect
       effect="powerstroke"
       id="path-effect8277"
       is_visible="true"
       lpeversion="1"
       offset_points="3,18.8679"
       not_jump="false"
       sort_points="true"
       interpolator_type="CubicBezierJohan"
       interpolator_beta="0.2"
       start_linecap_type="zerowidth"
       linejoin_type="extrp_arc"
       miter_limit="4"
       scale_width="1"
       end_linecap_type="zerowidth" />
    <inkscape:path-effect
       effect="powerstroke"
       id="path-effect8207"
       is_visible="true"
       lpeversion="1"
       offset_points="4,18.8679"
       not_jump="false"
       sort_points="true"
       interpolator_type="CubicBezierJohan"
       interpolator_beta="0.2"
       start_linecap_type="zerowidth"
       linejoin_type="extrp_arc"
       miter_limit="4"
       scale_width="1"
       end_linecap_type="zerowidth" />
    <inkscape:path-effect
       effect="powerstroke"
       id="path-effect8203"
       is_visible="true"
       lpeversion="1"
       offset_points="4,18.8679"
       not_jump="false"
       sort_points="true"
       interpolator_type="CubicBezierJohan"
       interpolator_beta="0.2"
       start_linecap_type="zerowidth"
       linejoin_type="extrp_arc"
       miter_limit="4"
       scale_width="1"
       end_linecap_type="zerowidth" />
    <linearGradient
       inkscape:collect="always"
       xlink:href="#linearGradient17412"
       id="linearGradient17414"
       x1="0"
       y1="0"
       x2="287.01843"
       y2="290.84024"
       gradientUnits="userSpaceOnUse"
       gradientTransform="translate(3.8217924)" />
  </defs>
  <sodipodi:namedview
     id="namedview4"
     pagecolor="#ffffff"
     bordercolor="#cccccc"
     borderopacity="1"
     inkscape:pageshadow="0"
     inkscape:pageopacity="0"
     inkscape:pagecheckerboard="true"
     showgrid="false"
     showguides="true"
     inkscape:guide-bbox="true"
     inkscape:snap-bbox="true"
     inkscape:bbox-paths="true"
     inkscape:bbox-nodes="true"
     inkscape:snap-bbox-edge-midpoints="true"
     inkscape:snap-bbox-midpoints="true"
     inkscape:object-paths="true"
     inkscape:snap-intersection-paths="true"
     inkscape:snap-midpoints="true"
     inkscape:snap-smooth-nodes="true"
     inkscape:snap-object-midpoints="true"
     inkscape:snap-center="true"
     inkscape:snap-text-baseline="true"
     inkscape:snap-page="true"
     inkscape:snap-global="true"
     inkscape:zoom="1.4142136"
     inkscape:cx="-10.960155"
     inkscape:cy="165.10943"
     inkscape:window-width="1920"
     inkscape:window-height="1009"
     inkscape:window-x="-8"
     inkscape:window-y="-8"
     inkscape:window-maximized="1"
     inkscape:current-layer="g8">
    <sodipodi:guide
       position="0,290.84024"
       orientation="1,0"
       id="guide17097" />
    <sodipodi:guide
       position="34,290.84024"
       orientation="0,-1"
       id="guide17099" />
    <sodipodi:guide
       position="290.84024,0"
       orientation="0,-1"
       id="guide17101" />
    <sodipodi:guide
       position="290.84024,127.34024"
       orientation="1,0"
       id="guide17103" />
    <sodipodi:guide
       position="145.42012,290.84024"
       orientation="1,0"
       id="guide17105" />
    <sodipodi:guide
       position="290.84024,145.42012"
       orientation="0,-1"
       id="guide17107" />
  </sodipodi:namedview>
  <g
     inkscape:groupmode="layer"
     inkscape:label="Image"
     id="g8">
    <path
       id="path1307-2"
       style="fill:#40a555;fill-opacity:1;stroke:#d2c827;stroke-width:1px;stroke-linecap:butt;stroke-linejoin:miter;stroke-opacity:1"
       d="m -725.271,-98.418352 v 38.92774 125.609373 c 0,3.42165 3.4221,6.84375 6.84375,6.84375 h 220.63281 c 0.84595,0 1.69606,-0.21451 2.4961,-0.58984 2.4001,-1.12599 4.3457,-3.70515 4.3457,-6.32812 v -118.617193 -38.92774 c 0,-3.45949 -3.45848,-6.91797 -6.91797,-6.91797 z m 16.01953,16.01758 h 24.42188 l -17.79297,22.91016 h -6.62891 z m 44.68945,0 h 18.04883 l -17.79297,22.91016 h -18.04687 z m 38.31641,0 h 17.03711 l -17.79297,22.91016 h -17.03516 z m 37.30469,0 h 17.04101 l -17.79297,22.91016 h -17.03906 z m 37.30859,0 h 17.04102 l -17.79297,22.91016 h -17.03906 z m 37.30859,0 h 7.35352 v 22.91016 h -25.14453 z m -194.92773,38.92774 h 202.28125 V 56.944941 h -202.28125 z" />
    <path
       id="path1307-2-2"
       style="fill:#40a555;fill-opacity:1;stroke:#d2c827;stroke-width:1px;stroke-linecap:butt;stroke-linejoin:miter;stroke-opacity:1"
       d="m -762.20098,-340.24154 0,41.1836 c 0,3.42165 3.4221,6.84375 6.84375,6.84375 h 220.63281 c 0.84595,0 1.69606,-0.21451 2.4961,-0.58984 2.4001,-1.12599 4.3457,-3.70515 4.3457,-6.32812 v -41.10939 c 0,-3.45949 -3.45848,-6.91797 -6.91797,-6.91797 l -220.48243,0 c -3.45898,0 -6.91796,3.45898 -6.91796,6.91797 z m 16.01953,9.09961 h 24.42188 l -17.79297,22.91016 h -6.62891 z m 44.68945,0 h 18.04883 l -17.79297,22.91016 h -18.04687 z m 38.31641,0 h 17.03711 l -17.79297,22.91016 h -17.03516 z m 37.30469,0 h 17.04101 l -17.79297,22.91016 h -17.03906 z m 37.30859,0 h 17.04102 l -17.79297,22.91016 h -17.03906 z m 37.30859,0 h 7.35352 v 22.91016 h -25.14453 z"
       sodipodi:nodetypes="ccsssccscccccccccccccccccccccccccccccccc" />
    <path
       id="path1307-8"
       style="fill:#40a555;fill-opacity:1;stroke:#d2c827;stroke-width:1px;stroke-linecap:butt;stroke-linejoin:miter;stroke-opacity:1"
       d="m 498.3879,-83.769029 v 38.92774 125.60937 c 0,3.42165 3.4221,6.84375 6.84375,6.84375 h 220.63282 c 0.84595,0 1.69606,-0.21451 2.4961,-0.58984 2.4001,-1.12599 4.3457,-3.70515 4.3457,-6.32812 v -118.61719 -38.92774 c 0,-3.45949 -3.45848,-6.91797 -6.91797,-6.91797 z m 16.01953,16.01758 h 24.42188 l -17.79297,22.91016 h -6.62891 z m 44.68946,0 h 18.04882 l -17.79296,22.91016 h -18.04688 z m 38.3164,0 h 17.03712 l -17.79298,22.91016 h -17.03516 z m 37.3047,0 H 651.759 l -17.79297,22.91016 h -17.03906 z m 37.30859,0 h 17.04102 l -17.79297,22.91016 h -17.03906 z m 37.30859,0 h 7.35352 v 22.91016 h -25.14453 z m -194.92774,38.92774 H 716.68869 V 71.594261 H 514.40743 Z" />
    <path
       id="path1307-2-2-3-9"
       style="fill:#40a555;fill-opacity:1;stroke:#d2c827;stroke-width:1px;stroke-linecap:butt;stroke-linejoin:miter;stroke-opacity:1"
       d="m 483.72743,-109.58767 15.79267,38.035241 c 1.3121,3.16009 5.78487,5.00831 8.94494,3.69621 l 203.76618,-84.606071 c 0.78128,-0.32439 1.48415,-0.84849 2.0791,-1.50192 1.78482,-1.96028 2.59267,-5.08835 1.58684,-7.5108 l -15.76422,-37.96672 c -1.32661,-3.19502 -5.84692,-5.06289 -9.04195,-3.73628 l -203.62729,84.5484 c -3.19456,1.32641 -5.06269,5.84738 -3.73627,9.04194 z m 18.28431,2.26097 22.55491,-9.36506 -7.6474,27.981821 -6.12215,2.54199 z m 41.2731,-17.13707 16.66905,-6.92118 -7.6474,27.98183 -16.66724,6.920431 z m 35.38724,-14.69319 15.73468,-6.53322 -7.6474,27.98182 -15.73286,6.53248 z m 34.45288,-14.30523 15.73829,-6.53471 -7.64741,27.98182 -15.73648,6.53397 z m 34.45647,-14.30672 15.7383,-6.53472 -7.64739,27.98182 -15.73649,6.53397 z m 34.45648,-14.30673 6.79136,-2.81985 8.78536,21.15875 -23.22231,9.64218 z"
       sodipodi:nodetypes="ccsssccscccccccccccccccccccccccccccccccc" />
    <path
       style="fill:none;fill-rule:nonzero;stroke:none;stroke-width:1px;stroke-linecap:butt;stroke-linejoin:miter;stroke-opacity:1"
       d="m 70.409348,277.77953 c 2.311849,-14.56519 6.284771,-39.59553 10.725277,-67.57176 l -33.544574,8.60472 c 0.650122,0.83834 1.313447,1.6937 1.983474,2.55771 -6.51473,19.7058 -12.20254,36.91033 -15.713101,47.5291 z m -0.720326,2.96469 c 4.067002,-12.3019 11.056164,-33.44276 18.8679,-57.07176 l 3.154799,-9.54266 -6.159149,-7.94229 c -2.641557,-3.40631 -5.501066,-7.09368 -8.142623,-10.5 l -26.711564,-34.44484 -6.83301,43.04956 c -4.440507,27.97624 -8.413429,53.00658 -10.725277,67.57176 z"
       id="path8275"
       inkscape:original-d="M 51.774723,274.82176 62.5,207.25 l 8.142623,10.5 z"
       inkscape:path-effect="#path-effect8277"
       inkscape:export-filename="C:\Users\agus_\Desktop\Proyecto-pagina-web-PeliCulero-IPS\PeliCulero\img\favicon.png"
       inkscape:export-xdpi="96"
       inkscape:export-ydpi="96" />
    <circle
       style="fill:url(#linearGradient17414);fill-opacity:1;fill-rule:evenodd;stroke:none;stroke-width:29.983;stroke-linecap:round;stroke-linejoin:round;stroke-dashoffset:4.6;stroke-opacity:1;paint-order:markers stroke fill"
       id="path16923-7"
       cx="145.42012"
       cy="145.42012"
       r="145.42012"
       inkscape:export-filename="C:\Users\agus_\Desktop\Proyecto-pagina-web-PeliCulero-IPS\PeliCulero\img\favicon.png"
       inkscape:export-xdpi="96"
       inkscape:export-ydpi="96" />
    <path
       id="path1307"
       style="fill:#000000;fill-opacity:1;stroke:none;stroke-width:1px;stroke-linecap:butt;stroke-linejoin:miter;stroke-opacity:1"
       d="m -418.14872,659.39794 c -0.89381,-0.0385 -1.77546,0.0941 -2.57422,0.42578 l -203.62695,84.54688 c -3.19455,1.32641 -5.06274,5.8484 -3.73633,9.04296 l 14.66016,35.30665 v 29.43945 125.60937 c 0,3.42165 3.4221,6.84375 6.84375,6.84375 h 220.63281 c 0.84595,0 1.69606,-0.21451 2.4961,-0.58984 2.4001,-1.12599 4.3457,-3.70515 4.3457,-6.32812 V 825.07763 786.14989 c 0,-3.45949 -3.45848,-6.91797 -6.91797,-6.91797 h -179 l 165.44336,-68.69336 c 0.78128,-0.32439 1.48317,-0.84852 2.07812,-1.50195 1.78482,-1.96028 2.59373,-5.08731 1.58789,-7.50976 l -15.76562,-37.9668 c -0.99496,-2.39627 -3.78537,-4.04667 -6.4668,-4.16211 z m -4.83593,18.70703 8.78515,21.16016 -23.22265,9.64062 7.64648,-27.98047 z m -25.50977,10.5918 -7.64648,27.98242 -15.73633,6.5332 7.64453,-27.98047 z m -34.45703,14.30664 -7.64649,27.98242 -15.73632,6.5332 7.64453,-27.98047 z m -34.45508,14.30664 -7.64844,27.98242 -15.73242,6.5332 7.64649,-27.98242 z m -34.45312,14.30664 -7.64844,27.98047 -16.66602,6.92187 7.64454,-27.98242 z m -35.38672,14.69336 -7.64844,27.98047 -6.12109,2.54297 -8.78711,-21.16016 z m -10.16016,48.93945 h 24.42188 l -17.79297,22.91016 h -6.62891 z m 44.68946,0 h 18.04882 l -17.79297,22.91016 h -18.04687 z m 38.3164,0 h 17.03711 l -17.79297,22.91016 h -17.03516 z m 37.30469,0 h 17.04101 l -17.79297,22.91016 H -494.887 Z m 37.30859,0 h 17.04102 l -17.79297,22.91016 h -17.03906 z m 37.30859,0 h 7.35352 v 22.91016 h -25.14453 z m -194.92773,38.92774 h 202.28125 v 100.41797 h -202.28125 z" />
    <path
       id="path1307-3"
       style="fill:#000000;fill-opacity:1;stroke:none;stroke-width:1px;stroke-linecap:butt;stroke-linejoin:miter;stroke-opacity:1"
       d="m -130.71069,473.82135 c -0.89381,-0.0385 -1.77546,0.0941 -2.57422,0.42578 l -203.62695,84.54688 c -3.19455,1.32641 -5.06274,5.8484 -3.73633,9.04296 l 14.66016,35.30665 v 29.43945 125.60937 c 0,3.42165 3.4221,6.84375 6.84375,6.84375 h 220.632815 c 0.84595,0 1.69606,-0.21451 2.4961,-0.58984 2.4001,-1.12599 4.3457,-3.70515 4.3457,-6.32812 V 639.50104 600.5733 c 0,-3.45949 -3.45848,-6.91797 -6.91797,-6.91797 H -277.58764 l 165.44336,-68.69336 c 0.78128,-0.32439 1.48317,-0.84852 2.07812,-1.50195 1.78482,-1.96028 2.59373,-5.08731 1.58789,-7.50976 l -15.76562,-37.9668 c -0.99496,-2.39627 -3.78537,-4.04667 -6.4668,-4.16211 z m -4.83593,18.70703 8.78515,21.16016 -23.22265,9.64062 7.64648,-27.98047 z m -25.50977,10.5918 -7.64648,27.98242 -15.73633,6.5332 7.64453,-27.98047 z m -34.45703,14.30664 -7.64649,27.98242 -15.73632,6.5332 7.64453,-27.98047 z m -34.45508,14.30664 -7.64844,27.98242 -15.73242,6.5332 7.64649,-27.98242 z m -34.45312,14.30664 -7.64844,27.98047 -16.66602,6.92187 7.64454,-27.98242 z m -35.38672,14.69336 -7.64844,27.98047 -6.12109,2.54297 -8.78711,-21.16016 z m -10.16016,48.93945 h 24.42188 l -17.79297,22.91016 h -6.62891 z m 44.68946,0 h 18.04882 l -17.79297,22.91016 h -18.04687 z m 38.3164,0 h 17.03711 l -17.79297,22.91016 h -17.03516 z m 37.30469,0 h 17.04101 l -17.79297,22.91016 h -17.03906 z m 37.30859,0 h 17.04102 l -17.79297,22.91016 h -17.03906 z m 37.30859,0 h 7.35352 v 22.91016 h -25.14453 z m -194.92773,38.92774 h 202.28125 V 749.01862 H -309.9685 Z" />
    <path
       style="fill:none;fill-rule:nonzero;stroke:none;stroke-width:1px;stroke-linecap:butt;stroke-linejoin:miter;stroke-opacity:1"
       d="m 51.541445,277.77953 c 2.311849,-14.56519 6.284772,-39.59553 10.72528,-67.57176 l -33.544576,8.60471 c 0.650122,0.83834 1.313446,1.69371 1.983474,2.55771 -6.51473,19.70581 -12.202541,36.91034 -15.713102,47.52911 z m -0.720326,2.96469 c 4.067002,-12.3019 11.056164,-33.44276 18.8679,-57.07176 l 3.154798,-9.54265 -6.159146,-7.94229 c -2.641556,-3.40632 -5.501063,-7.09369 -8.14262,-10.5 l -26.711563,-34.44486 -6.833013,43.04957 c -4.440508,27.97624 -8.413431,53.00658 -10.72528,67.57176 z"
       id="path8275-0"
       inkscape:original-d="M 32.90682,274.82176 43.6321,207.25 l 8.14262,10.5 z"
       inkscape:path-effect="#path-effect17280"
       inkscape:export-filename="C:\Users\agus_\Desktop\Proyecto-pagina-web-PeliCulero-IPS\PeliCulero\img\favicon.png"
       inkscape:export-xdpi="96"
       inkscape:export-ydpi="96" />
    <path
       id="path16923"
       style="fill:#ffffff;fill-opacity:1;fill-rule:evenodd;stroke:none;stroke-width:29.983;stroke-linecap:round;stroke-linejoin:round;stroke-dashoffset:4.6;stroke-opacity:1;paint-order:markers stroke fill"
       d="M -560.57968,140.3793 A 145.42012,145.42012 0 0 0 -705.99956,285.79922 145.42012,145.42012 0 0 0 -560.57968,431.21914 145.42012,145.42012 0 0 0 -415.15976,285.79922 145.42012,145.42012 0 0 0 -560.57968,140.3793 Z m 55.92188,29.72656 c 1.95403,0.0841 3.98783,1.28697 4.71289,3.0332 l 11.48828,27.66602 c 0.73297,1.7653 0.1444,4.04415 -1.15625,5.47266 -0.43357,0.47616 -0.94628,0.85931 -1.51563,1.0957 L -611.691,257.43203 h 130.4414 c 2.52102,0 5.04102,2.52 5.04102,5.04102 v 28.36719 86.43945 c 0,1.91144 -1.417,3.79079 -3.16602,4.61133 -0.58302,0.2735 -1.20188,0.43164 -1.81836,0.43164 H -641.9742 c -2.49347,0 -4.98829,-2.49483 -4.98829,-4.98828 V 285.79922 264.3461 l -10.68359,-25.72852 c -0.9666,-2.32798 0.39471,-5.62326 2.72266,-6.58984 l 148.38866,-61.61133 c 0.58207,-0.24173 1.22562,-0.33854 1.87696,-0.31055 z m -3.52344,13.63086 -4.94922,2.05664 -5.57226,20.38867 16.92187,-7.02539 z m -18.58984,7.71875 -11.47071,4.76367 -5.57031,20.38867 11.46875,-4.75976 z m -25.11133,10.42578 -11.46875,4.76367 -5.57032,20.38867 11.4668,-4.75976 z m -25.10742,10.42578 -11.4668,4.76172 -5.57227,20.39063 11.46485,-4.75977 z m -25.10743,10.42578 -12.14843,5.04297 -5.57031,20.39258 12.14453,-5.04492 z m -25.7871,10.70703 -16.4375,6.82422 6.40234,15.41993 4.46094,-1.85352 z m -7.4043,35.66407 v 16.69531 h 4.83008 l 12.9668,-16.69531 z m 32.5664,0 -12.96484,16.69531 h 13.15234 l 12.96485,-16.69531 z m 27.92188,0 -12.96484,16.69531 h 12.41406 l 12.96679,-16.69531 z m 27.18555,0 -12.96485,16.69531 h 12.41797 l 12.96484,-16.69531 z m 27.1875,0 -12.96485,16.69531 h 12.41797 l 12.96484,-16.69531 z m 27.1875,0 -12.96485,16.69531 h 18.32422 v -16.69531 z m -142.04883,28.36719 v 73.17773 h 147.4082 V 297.4711 Z"
       inkscape:export-filename="C:\Users\agus_\Desktop\Proyecto-pagina-web-PeliCulero-IPS\PeliCulero\img\peliculero-circulo-blanco.png"
       inkscape:export-xdpi="96"
       inkscape:export-ydpi="96" />
    <path
       id="path1307-0"
       style="fill:#ffffff;fill-opacity:1;stroke:none;stroke-width:0.73;stroke-linecap:butt;stroke-linejoin:miter;stroke-opacity:1;stroke-miterlimit:4;stroke-dasharray:none"
       d="m 201.29818,29.478045 c -0.65233,-0.0281 -1.29578,0.0687 -1.87874,0.31075 l -148.612735,61.7047 c -2.33143,0.96806 -3.69498,4.26833 -2.7269,6.59981 l 10.69947,25.767785 v 21.48574 91.67328 c 0,2.49721 2.49747,4.99476 4.99474,4.99476 H 224.79808 c 0.6174,0 1.23783,-0.15655 1.82172,-0.43048 1.75166,-0.82178 3.17162,-2.70412 3.17162,-4.61844 V 150.39577 121.9852 c 0,-2.52483 -2.52409,-5.04893 -5.04893,-5.04893 H 94.103225 L 214.84847,66.801915 c 0.5702,-0.23675 1.08246,-0.61928 1.51667,-1.09616 1.30261,-1.43067 1.89298,-3.71287 1.15889,-5.48084 l -11.50619,-27.70924 c -0.72615,-1.74887 -2.76268,-2.95338 -4.71966,-3.03763 z m -3.5294,13.65292 6.41165,15.44328 -16.94855,7.036 5.58062,-20.42094 z m -18.61775,7.7302 -5.58062,20.42236 -11.48482,4.76811 5.5792,-20.42094 z m -25.14772,10.44139 -5.58062,20.42236 -11.48481,4.76811 5.57919,-20.42093 z m -25.14629,10.44139 -5.58205,20.42236 -11.48196,4.76811 5.58063,-20.42236 z m -25.14486,10.44139 -5.582055,20.420935 -12.16333,5.05178 5.5792,-20.422365 z m -25.826235,10.72362 -5.58205,20.420935 -4.46734,1.85594 -6.41308,-15.443285 z m -7.41517,35.717395 h 17.82377 l -12.98581,16.72048 h -4.83796 z m 32.615635,0 h 13.17254 l -12.98581,16.72048 H 90.101995 Z m 27.96439,0 h 12.43417 l -12.98581,16.72048 h -12.43275 z m 27.22602,0 h 12.43701 L 157.728,145.34683 h -12.43559 z m 27.22886,0 h 12.43703 l -12.98582,16.72048 h -12.43559 z m 27.22887,0 h 5.36681 v 16.72048 H 199.75015 Z M 70.470755,157.03691 H 218.10134 V 230.3248 H 70.470755 Z"
       inkscape:export-filename="C:\Users\agus_\Desktop\Proyecto-pagina-web-PeliCulero-IPS\PeliCulero\img\favicon.png"
       inkscape:export-xdpi="96"
       inkscape:export-ydpi="96" />
  </g>
</svg>
