<?xml version="1.0" encoding="UTF-8" standalone="no"?>
<!-- Created with Inkscape (http://www.inkscape.org/) -->

<svg
   version="1.1"
   id="svg2"
   width="290.84024"
   height="290.84024"
   viewBox="0 0 290.84024 290.84024"
   sodipodi:docname="peliculero-circulo-blanco.svg"
   inkscape:version="1.1 (c68e22c387, 2021-05-23)"
   xmlns:inkscape="http://www.inkscape.org/namespaces/inkscape"
   xmlns:sodipodi="http://sodipodi.sourceforge.net/DTD/sodipodi-0.dtd"
   xmlns="http://www.w3.org/2000/svg"
   xmlns:svg="http://www.w3.org/2000/svg">
  <defs
     id="defs6">
    <inkscape:path-effect
       effect="powerstroke"
       id="path-effect17280"
       is_visible="true"
       lpeversion="1"
       offset_points="3,18.8679"
       not_jump="false"
       sort_points="true"
       interpolator_type="CubicBezierJohan"
       interpolator_beta="0.2"
       start_linecap_type="zerowidth"
       linejoin_type="extrp_arc"
       miter_limit="4"
       scale_width="1"
       end_linecap_type="zerowidth" />
    <inkscape:path-effect
       effect="powerstroke"
       id="path-effect17276"
       is_visible="true"
       lpeversion="1"
       offset_points="4,18.8679"
       not_jump="false"
       sort_points="true"
       interpolator_type="CubicBezierJohan"
       interpolator_beta="0.2"
       start_linecap_type="zerowidth"
       linejoin_type="extrp_arc"
       miter_limit="4"
       scale_width="1"
       end_linecap_type="zerowidth" />
    <inkscape:path-effect
       effect="fill_between_strokes"
       id="path-effect12197"
       is_visible="true"
       lpeversion="1"
       linkedpath=""
       secondpath=""
       reversesecond="false"
       join="true"
       close="true" />
    <inkscape:path-effect
       effect="fill_between_strokes"
       id="path-effect10894"
       is_visible="true"
       lpeversion="1"
       linkedpath=""
       secondpath=""
       reversesecond="false"
       join="true"
       close="true" />
    <inkscape:path-effect
       effect="fill_between_strokes"
       id="path-effect10863"
       is_visible="true"
       lpeversion="1"
       linkedpath=""
       secondpath=""
       reversesecond="false"
       join="true"
       close="true" />
    <inkscape:path-effect
       effect="powerstroke"
       id="path-effect8277"
       is_visible="true"
       lpeversion="1"
       offset_points="3,18.8679"
       not_jump="false"
       sort_points="true"
       interpolator_type="CubicBezierJohan"
       interpolator_beta="0.2"
       start_linecap_type="zerowidth"
       linejoin_type="extrp_arc"
       miter_limit="4"
       scale_width="1"
       end_linecap_type="zerowidth" />
    <inkscape:path-effect
       effect="powerstroke"
       id="path-effect8207"
       is_visible="true"
       lpeversion="1"
       offset_points="4,18.8679"
       not_jump="false"
       sort_points="true"
       interpolator_type="CubicBezierJohan"
       interpolator_beta="0.2"
       start_linecap_type="zerowidth"
       linejoin_type="extrp_arc"
       miter_limit="4"
       scale_width="1"
       end_linecap_type="zerowidth" />
    <inkscape:path-effect
       effect="powerstroke"
       id="path-effect8203"
       is_visible="true"
       lpeversion="1"
       offset_points="4,18.8679"
       not_jump="false"
       sort_points="true"
       interpolator_type="CubicBezierJohan"
       interpolator_beta="0.2"
       start_linecap_type="zerowidth"
       linejoin_type="extrp_arc"
       miter_limit="4"
       scale_width="1"
       end_linecap_type="zerowidth" />
  </defs>
  <sodipodi:namedview
     id="namedview4"
     pagecolor="#ffffff"
     bordercolor="#cccccc"
     borderopacity="1"
     inkscape:pageshadow="0"
     inkscape:pageopacity="0"
     inkscape:pagecheckerboard="true"
     showgrid="false"
     showguides="true"
     inkscape:guide-bbox="true"
     inkscape:snap-bbox="true"
     inkscape:bbox-paths="true"
     inkscape:bbox-nodes="true"
     inkscape:snap-bbox-edge-midpoints="true"
     inkscape:snap-bbox-midpoints="true"
     inkscape:object-paths="true"
     inkscape:snap-intersection-paths="true"
     inkscape:snap-midpoints="true"
     inkscape:snap-smooth-nodes="true"
     inkscape:snap-object-midpoints="true"
     inkscape:snap-center="true"
     inkscape:snap-text-baseline="true"
     inkscape:snap-page="true"
     inkscape:snap-global="true"
     inkscape:zoom="2"
     inkscape:cx="78.25"
     inkscape:cy="172.75"
     inkscape:window-width="1920"
     inkscape:window-height="1009"
     inkscape:window-x="-8"
     inkscape:window-y="-8"
     inkscape:window-maximized="1"
     inkscape:current-layer="g8">
    <sodipodi:guide
       position="0,290.84024"
       orientation="1,0"
       id="guide17097" />
    <sodipodi:guide
       position="34,290.84024"
       orientation="0,-1"
       id="guide17099" />
    <sodipodi:guide
       position="290.84024,0"
       orientation="0,-1"
       id="guide17101" />
    <sodipodi:guide
       position="290.84024,127.34024"
       orientation="1,0"
       id="guide17103" />
    <sodipodi:guide
       position="145.42012,290.84024"
       orientation="1,0"
       id="guide17105" />
    <sodipodi:guide
       position="290.84024,145.42012"
       orientation="0,-1"
       id="guide17107" />
  </sodipodi:namedview>
  <g
     inkscape:groupmode="layer"
     inkscape:label="Image"
     id="g8">
    <path
       id="path16923"
       style="fill:#ffffff;fill-opacity:1;fill-rule:evenodd;stroke:none;stroke-width:29.983;stroke-linecap:round;stroke-linejoin:round;stroke-dashoffset:4.6;stroke-opacity:1;paint-order:markers stroke fill"
       d="M 145.41992 0 A 145.42012 145.42012 0 0 0 0 145.41992 A 145.42012 145.42012 0 0 0 145.41992 290.83984 A 145.42012 145.42012 0 0 0 290.83984 145.41992 A 145.42012 145.42012 0 0 0 145.41992 0 z M 201.3418 29.726562 C 203.29583 29.810696 205.32963 31.013534 206.05469 32.759766 L 217.54297 60.425781 C 218.27594 62.191081 217.68737 64.46993 216.38672 65.898438 C 215.95315 66.374607 215.44044 66.757752 214.87109 66.994141 L 94.308594 117.05273 L 224.75 117.05273 C 227.27102 117.05273 229.79102 119.57273 229.79102 122.09375 L 229.79102 150.46094 L 229.79102 236.90039 C 229.79102 238.81183 228.37402 240.69118 226.625 241.51172 C 226.04198 241.78522 225.42312 241.94336 224.80664 241.94336 L 64.025391 241.94336 C 61.531927 241.94336 59.037109 239.44853 59.037109 236.95508 L 59.037109 145.41992 L 59.037109 123.9668 L 48.353516 98.238281 C 47.386916 95.910303 48.748222 92.615027 51.076172 91.648438 L 199.46484 30.037109 C 200.04691 29.795382 200.69046 29.698573 201.3418 29.726562 z M 197.81836 43.357422 L 192.86914 45.414062 L 187.29688 65.802734 L 204.21875 58.777344 L 197.81836 43.357422 z M 179.22852 51.076172 L 167.75781 55.839844 L 162.1875 76.228516 L 173.65625 71.46875 L 179.22852 51.076172 z M 154.11719 61.501953 L 142.64844 66.265625 L 137.07812 86.654297 L 148.54492 81.894531 L 154.11719 61.501953 z M 129.00977 71.927734 L 117.54297 76.689453 L 111.9707 97.080078 L 123.43555 92.320312 L 129.00977 71.927734 z M 103.90234 82.353516 L 91.753906 87.396484 L 86.183594 107.78906 L 98.328125 102.74414 L 103.90234 82.353516 z M 78.115234 93.060547 L 61.677734 99.884766 L 68.080078 115.30469 L 72.541016 113.45117 L 78.115234 93.060547 z M 70.710938 128.72461 L 70.710938 145.41992 L 75.541016 145.41992 L 88.507812 128.72461 L 70.710938 128.72461 z M 103.27734 128.72461 L 90.3125 145.41992 L 103.46484 145.41992 L 116.42969 128.72461 L 103.27734 128.72461 z M 131.19922 128.72461 L 118.23438 145.41992 L 130.64844 145.41992 L 143.61523 128.72461 L 131.19922 128.72461 z M 158.38477 128.72461 L 145.41992 145.41992 L 157.83789 145.41992 L 170.80273 128.72461 L 158.38477 128.72461 z M 185.57227 128.72461 L 172.60742 145.41992 L 185.02539 145.41992 L 197.99023 128.72461 L 185.57227 128.72461 z M 212.75977 128.72461 L 199.79492 145.41992 L 218.11914 145.41992 L 218.11914 128.72461 L 212.75977 128.72461 z M 70.710938 157.0918 L 70.710938 230.26953 L 218.11914 230.26953 L 218.11914 157.0918 L 70.710938 157.0918 z "
       inkscape:export-filename="C:\Users\agus_\Desktop\Proyecto-pagina-web-PeliCulero-IPS\PeliCulero\img\peliculero-circulo-blanco.png"
       inkscape:export-xdpi="96"
       inkscape:export-ydpi="96" />
    <path
       id="path1307-2"
       style="fill:#40a555;fill-opacity:1;stroke:#d2c827;stroke-width:1px;stroke-linecap:butt;stroke-linejoin:miter;stroke-opacity:1"
       d="m -725.271,-98.418352 v 38.92774 125.609373 c 0,3.42165 3.4221,6.84375 6.84375,6.84375 h 220.63281 c 0.84595,0 1.69606,-0.21451 2.4961,-0.58984 2.4001,-1.12599 4.3457,-3.70515 4.3457,-6.32812 v -118.617193 -38.92774 c 0,-3.45949 -3.45848,-6.91797 -6.91797,-6.91797 z m 16.01953,16.01758 h 24.42188 l -17.79297,22.91016 h -6.62891 z m 44.68945,0 h 18.04883 l -17.79297,22.91016 h -18.04687 z m 38.31641,0 h 17.03711 l -17.79297,22.91016 h -17.03516 z m 37.30469,0 h 17.04101 l -17.79297,22.91016 h -17.03906 z m 37.30859,0 h 17.04102 l -17.79297,22.91016 h -17.03906 z m 37.30859,0 h 7.35352 v 22.91016 h -25.14453 z m -194.92773,38.92774 h 202.28125 V 56.944941 h -202.28125 z" />
    <path
       id="path1307-2-2"
       style="fill:#40a555;fill-opacity:1;stroke:#d2c827;stroke-width:1px;stroke-linecap:butt;stroke-linejoin:miter;stroke-opacity:1"
       d="m -762.20098,-340.24154 0,41.1836 c 0,3.42165 3.4221,6.84375 6.84375,6.84375 h 220.63281 c 0.84595,0 1.69606,-0.21451 2.4961,-0.58984 2.4001,-1.12599 4.3457,-3.70515 4.3457,-6.32812 v -41.10939 c 0,-3.45949 -3.45848,-6.91797 -6.91797,-6.91797 l -220.48243,0 c -3.45898,0 -6.91796,3.45898 -6.91796,6.91797 z m 16.01953,9.09961 h 24.42188 l -17.79297,22.91016 h -6.62891 z m 44.68945,0 h 18.04883 l -17.79297,22.91016 h -18.04687 z m 38.31641,0 h 17.03711 l -17.79297,22.91016 h -17.03516 z m 37.30469,0 h 17.04101 l -17.79297,22.91016 h -17.03906 z m 37.30859,0 h 17.04102 l -17.79297,22.91016 h -17.03906 z m 37.30859,0 h 7.35352 v 22.91016 h -25.14453 z"
       sodipodi:nodetypes="ccsssccscccccccccccccccccccccccccccccccc" />
    <path
       id="path1307-8"
       style="fill:#40a555;fill-opacity:1;stroke:#d2c827;stroke-width:1px;stroke-linecap:butt;stroke-linejoin:miter;stroke-opacity:1"
       d="m 498.3879,-83.769029 v 38.92774 125.60937 c 0,3.42165 3.4221,6.84375 6.84375,6.84375 h 220.63282 c 0.84595,0 1.69606,-0.21451 2.4961,-0.58984 2.4001,-1.12599 4.3457,-3.70515 4.3457,-6.32812 v -118.61719 -38.92774 c 0,-3.45949 -3.45848,-6.91797 -6.91797,-6.91797 z m 16.01953,16.01758 h 24.42188 l -17.79297,22.91016 h -6.62891 z m 44.68946,0 h 18.04882 l -17.79296,22.91016 h -18.04688 z m 38.3164,0 h 17.03712 l -17.79298,22.91016 h -17.03516 z m 37.3047,0 H 651.759 l -17.79297,22.91016 h -17.03906 z m 37.30859,0 h 17.04102 l -17.79297,22.91016 h -17.03906 z m 37.30859,0 h 7.35352 v 22.91016 h -25.14453 z m -194.92774,38.92774 H 716.68869 V 71.594261 H 514.40743 Z" />
    <path
       id="path1307-2-2-3-9"
       style="fill:#40a555;fill-opacity:1;stroke:#d2c827;stroke-width:1px;stroke-linecap:butt;stroke-linejoin:miter;stroke-opacity:1"
       d="m 483.72743,-109.58767 15.79267,38.035241 c 1.3121,3.16009 5.78487,5.00831 8.94494,3.69621 l 203.76618,-84.606071 c 0.78128,-0.32439 1.48415,-0.84849 2.0791,-1.50192 1.78482,-1.96028 2.59267,-5.08835 1.58684,-7.5108 l -15.76422,-37.96672 c -1.32661,-3.19502 -5.84692,-5.06289 -9.04195,-3.73628 l -203.62729,84.5484 c -3.19456,1.32641 -5.06269,5.84738 -3.73627,9.04194 z m 18.28431,2.26097 22.55491,-9.36506 -7.6474,27.981821 -6.12215,2.54199 z m 41.2731,-17.13707 16.66905,-6.92118 -7.6474,27.98183 -16.66724,6.920431 z m 35.38724,-14.69319 15.73468,-6.53322 -7.6474,27.98182 -15.73286,6.53248 z m 34.45288,-14.30523 15.73829,-6.53471 -7.64741,27.98182 -15.73648,6.53397 z m 34.45647,-14.30672 15.7383,-6.53472 -7.64739,27.98182 -15.73649,6.53397 z m 34.45648,-14.30673 6.79136,-2.81985 8.78536,21.15875 -23.22231,9.64218 z"
       sodipodi:nodetypes="ccsssccscccccccccccccccccccccccccccccccc" />
    <path
       style="fill:none;fill-rule:nonzero;stroke:none;stroke-width:1px;stroke-linecap:butt;stroke-linejoin:miter;stroke-opacity:1"
       d="m 70.642623,274.82176 c 0,-28.25562 0,-70.83505 0,-120.47702 38.563817,0 101.314477,0 164.546097,0 0,22.22152 0,63.31094 0,101.60912 -75.70706,0 -140.78834,0 -183.413997,0 z m -18.8679,18.8679 c 46.127598,0 118.552107,0 202.281897,0 h 18.8679 v -18.8679 c 0,-43.4958 0,-91.42036 0,-139.34492 v -18.8679 h -18.8679 c -69.57032,0 -139.14064,0 -202.281897,0 h -18.8679 v 18.8679 c 0,57.67853 0,107.56923 0,139.34492 z"
       id="path8205"
       inkscape:original-d="M 51.774723,274.82176 V 135.47684 H 254.05662 v 139.34492 z"
       inkscape:path-effect="#path-effect8207" />
    <path
       style="fill:none;fill-rule:nonzero;stroke:none;stroke-width:1px;stroke-linecap:butt;stroke-linejoin:miter;stroke-opacity:1"
       d="m 70.409348,277.77953 c 2.311849,-14.56519 6.284771,-39.59553 10.725277,-67.57176 l -33.544574,8.60472 c 0.650122,0.83834 1.313447,1.6937 1.983474,2.55771 -6.51473,19.7058 -12.20254,36.91033 -15.713101,47.5291 z m -0.720326,2.96469 c 4.067002,-12.3019 11.056164,-33.44276 18.8679,-57.07176 l 3.154799,-9.54266 -6.159149,-7.94229 c -2.641557,-3.40631 -5.501066,-7.09368 -8.142623,-10.5 l -26.711564,-34.44484 -6.83301,43.04956 c -4.440507,27.97624 -8.413429,53.00658 -10.725277,67.57176 z"
       id="path8275"
       inkscape:original-d="M 51.774723,274.82176 62.5,207.25 l 8.142623,10.5 z"
       inkscape:path-effect="#path-effect8277" />
    <circle
       style="fill:#ffffff;fill-opacity:1;fill-rule:evenodd;stroke:none;stroke-width:29.983;stroke-linecap:round;stroke-linejoin:round;stroke-dashoffset:4.6;stroke-opacity:1;paint-order:markers stroke fill"
       id="path16923-7"
       cx="-300"
       cy="144.34319"
       r="145.42012" />
    <path
       id="path1307-3"
       style="fill:#000000;fill-opacity:1;stroke:none;stroke-width:0.632582px;stroke-linecap:butt;stroke-linejoin:miter;stroke-opacity:1"
       d="m -245.81052,52.23662 c -0.5654,-0.0243 -1.12312,0.0595 -1.6284,0.26934 l -128.81072,53.48281 c -2.0208,0.83906 -3.2026,3.69959 -2.36353,5.72042 l 9.27375,22.33434 v 18.62286 79.45821 c 0,2.16447 2.16476,4.32923 4.32924,4.32923 h 139.5683 c 0.53514,0 1.0729,-0.1357 1.579,-0.37312 1.51825,-0.71228 2.74901,-2.34381 2.74901,-4.00306 v -75.03508 -24.62498 c 0,-2.1884 -2.18778,-4.37618 -4.37618,-4.37618 H -338.7222 l 104.65646,-43.45417 c 0.49423,-0.2052 0.93822,-0.53676 1.31458,-0.9501 1.12905,-1.24004 1.64074,-3.21814 1.00447,-4.75053 l -9.97304,-24.01712 c -0.6294,-1.51584 -2.39457,-2.55984 -4.09079,-2.63287 z m -3.05912,11.83372 5.55733,13.38554 -14.69023,6.09848 4.83703,-17.69993 z m -16.13701,6.70018 -4.83702,17.70118 -9.95452,4.13277 4.83578,-17.69992 z m -21.79689,9.05012 -4.83703,17.70117 -9.95451,4.13278 4.83578,-17.69992 z m -21.79567,9.05012 -4.83825,17.70117 -9.95205,4.13279 4.83703,-17.70117 z m -21.7944,9.05012 -4.83827,17.69994 -10.54262,4.37865 4.83579,-17.70118 z m -22.38501,9.29476 -4.83825,17.69994 -3.8721,1.60863 -5.55857,-13.38553 z m -6.42713,30.95821 h 15.44885 l -11.25552,14.49254 h -4.19333 z m 28.26974,0 h 11.41736 l -11.25552,14.49254 h -11.41612 z m 24.23826,0 h 10.77736 l -11.2555,14.49254 h -10.77613 z m 23.59827,0 h 10.77984 l -11.25551,14.49254 h -10.77861 z m 23.60073,0 h 10.77984 l -11.25551,14.49254 h -10.77859 z m 23.60074,0 h 4.65171 v 14.49254 h -15.90598 z m -123.30774,24.62497 h 127.95945 v 63.52259 h -127.95945 z" />
    <path
       style="fill:none;fill-rule:nonzero;stroke:none;stroke-width:1px;stroke-linecap:butt;stroke-linejoin:miter;stroke-opacity:1"
       d="m -374.7775,273.74483 c 0,-28.25562 0,-70.83505 0,-120.47702 38.56382,0 101.31448,0 164.5461,0 0,22.22152 0,63.31094 0,101.60912 -75.70706,0 -140.78834,0 -183.414,0 z m -18.8679,18.8679 c 46.1276,0 118.5521,0 202.2819,0 h 18.8679 v -18.8679 c 0,-43.4958 0,-91.42036 0,-139.34492 v -18.8679 h -18.8679 c -69.57032,0 -139.14065,0 -202.2819,0 h -18.8679 v 18.8679 c 0,57.67853 0,107.56923 0,139.34492 z"
       id="path8205-6"
       inkscape:original-d="M -393.6454,273.74483 V 134.39991 h 202.2819 v 139.34492 z"
       inkscape:path-effect="#path-effect17276" />
    <path
       style="fill:none;fill-rule:nonzero;stroke:none;stroke-width:1px;stroke-linecap:butt;stroke-linejoin:miter;stroke-opacity:1"
       d="m -375.01077,276.7026 c 2.31184,-14.56519 6.28477,-39.59553 10.72528,-67.57176 l -33.54458,8.60471 c 0.65012,0.83834 1.31345,1.69371 1.98347,2.55771 -6.51473,19.70581 -12.20254,36.91034 -15.7131,47.52911 z m -0.72033,2.96469 c 4.067,-12.3019 11.05616,-33.44276 18.8679,-57.07176 l 3.1548,-9.54265 -6.15915,-7.94229 c -2.64156,-3.40632 -5.50106,-7.09369 -8.14262,-10.5 l -26.71156,-34.44486 -6.83302,43.04957 c -4.4405,27.97624 -8.41343,53.00658 -10.72528,67.57176 z"
       id="path8275-0"
       inkscape:original-d="m -393.6454,273.74483 10.72528,-67.57176 8.14262,10.5 z"
       inkscape:path-effect="#path-effect17280" />
  </g>
</svg>
